<svg xmlns="http://www.w3.org/2000/svg" viewBox="0 0 128 128">
  <defs>
    <radialGradient id="bg" cx="0.2" cy="0.15" r="1">
      <stop offset="0%" stop-color="#2a3b8f" />
      <stop offset="45%" stop-color="#182150" />
      <stop offset="100%" stop-color="#090d24" />
    </radialGradient>
    <linearGradient id="ring" x1="0" y1="0" x2="1" y2="1">
      <stop offset="0%" stop-color="#74e8ff" />
      <stop offset="48%" stop-color="#5aa8ff" />
      <stop offset="100%" stop-color="#8a5bff" />
    </linearGradient>
    <linearGradient id="flux" x1="0" y1="0" x2="1" y2="1">
      <stop offset="0%" stop-color="#8a5bff" />
      <stop offset="46%" stop-color="#64d6ff" />
      <stop offset="100%" stop-color="#abfaff" />
    </linearGradient>
    <filter id="glow" x="-20%" y="-20%" width="140%" height="140%">
      <feGaussianBlur stdDeviation="3" in="SourceGraphic" result="blur" />
      <feMerge>
        <feMergeNode in="blur" />
        <feMergeNode in="SourceGraphic" />
      </feMerge>
    </filter>
  </defs>
  <rect width="128" height="128" rx="28" fill="url(#bg)" />
  <path d="M98 37.5A44 44 0 1 1 35 92" fill="none" stroke="url(#ring)" stroke-width="8" stroke-linecap="round" filter="url(#glow)" />
  <path d="M92 30c-9-7.5-21.2-11.6-32.8-10.1C40.3 22.4 26 38 26 56.5c0 6.3 1.3 12.2 3.8 17.6" fill="none" stroke="url(#flux)" stroke-width="6" stroke-linecap="round" stroke-linejoin="round" />
  <circle cx="64" cy="64" r="22" fill="#0c1534" fill-opacity="0.78" />
  <circle cx="64" cy="64" r="18" fill="#0a132e" stroke="#6bdcff" stroke-width="2.5" />
  <path d="M64 64V46" stroke="#6bdcff" stroke-width="4" stroke-linecap="round" />
  <path d="M64 64l15 4" stroke="#90f6ff" stroke-width="4" stroke-linecap="round" />
  <circle cx="64" cy="64" r="4" fill="#9cfaff" />
  <path d="M100 62c4.4 0 8 3.6 8 8 0 2.8-1.4 5.4-3.6 6.9" fill="none" stroke="#7ef2ff" stroke-width="3" stroke-linecap="round" />
</svg>
